<svg width="25" height="25" viewBox="0 0 25 25" fill="none" xmlns="http://www.w3.org/2000/svg">
<path d="M14.7831 6.25244C14.0569 6.2417 13.2393 6.2417 12.3148 6.2417C8.3144 6.2417 6.31506 6.2417 5.07099 7.11153C3.82861 7.98136 3.82861 9.38158 3.82861 12.182C3.82861 14.9824 3.82776 16.3827 5.07099 17.2525C6.31421 18.1223 8.3144 18.1223 12.3148 18.1223C16.3151 18.1223 18.3162 18.1223 19.5577 17.2525C20.8009 16.3827 20.8009 14.9824 20.8009 12.182C20.8009 11.7242 20.8009 11.3038 20.7954 10.9171" stroke="black" stroke-width="1.33" stroke-linecap="round" stroke-linejoin="round"/>
<path d="M10.4673 9.80585V14.558C10.4676 14.6192 10.4799 14.6797 10.5036 14.7361C10.5273 14.7924 10.5618 14.8436 10.6053 14.8866C10.6487 14.9297 10.7002 14.9637 10.7569 14.9869C10.8135 15.01 10.8741 15.0217 10.9352 15.0214C11.0274 15.0225 11.1177 14.9956 11.1942 14.9442L14.8004 12.5886C14.8645 12.547 14.9173 12.4901 14.954 12.4231C14.9907 12.356 15.01 12.2809 15.0104 12.2044C15.0107 12.128 14.992 12.0527 14.9559 11.9853C14.9199 11.9179 14.8676 11.8606 14.8038 11.8185L11.1976 9.42195C11.0945 9.35294 10.9684 9.32735 10.8465 9.35074C10.7247 9.37413 10.617 9.44461 10.5468 9.54689C10.4946 9.62311 10.4668 9.71345 10.4673 9.80585Z" stroke="black" stroke-width="1.33" stroke-linecap="round" stroke-linejoin="round"/>
<path d="M16.8013 7.21777H20.8013" stroke="black" stroke-width="1.33333" stroke-linecap="round" stroke-linejoin="round"/>
<path d="M18.8013 5.21777V9.21777" stroke="black" stroke-width="1.33333" stroke-linecap="round" stroke-linejoin="round"/>
</svg>
